<svg height="48" viewBox="0 0 48.000001 48.000001" width="48" xmlns="http://www.w3.org/2000/svg" xmlns:xlink="http://www.w3.org/1999/xlink"><linearGradient id="a" gradientUnits="userSpaceOnUse" x1="-1050.2538506" x2="-1004.74572466482" y1="-42.20333971366" y2="-39.42527025436"><stop offset="0" stop-color="#f00"/><stop offset="1" stop-color="#ff2a2a"/></linearGradient><g transform="translate(0 -1004.3622)"><circle cx="-1028.7955" cy="-42.269115" fill="#04a" r="0" transform="matrix(-.06432929 -.99792873 .99792873 -.06432929 0 0)"/><ellipse cx="-1027.776" cy="-42.203388" fill="url(#a)" rx="22.477943" ry="22.477945" transform="matrix(-.06432929 -.99792873 .99792873 -.0643293 0 0)"/><text x="18.580486" y="1042.6661"><tspan fill="#fff" x="18.580486" y="1042.6661"/></text><g fill="#fff"><path d="m23.993726 1016.1014h.01278c1.128529 0 2.037057.9085 2.037057 2.037v14.3169c0 1.1286-.908528 2.0371-2.037057 2.0371h-.01278c-1.12853 0-2.037057-.9085-2.037057-2.0371v-14.3169c0-1.1285.908527-2.037 2.037057-2.037z"/><rect height="4.086899" rx="17.981438" ry="16.598249" width="4.086899" x="21.956669" y="1038.5792"/></g></g></svg>