<?xml version="1.0" standalone="no"?>
<!DOCTYPE svg PUBLIC "-//W3C//DTD SVG 20010904//EN"
 "http://www.w3.org/TR/2001/REC-SVG-20010904/DTD/svg10.dtd">
<svg version="1.0" xmlns="http://www.w3.org/2000/svg"
 width="735.000000pt" height="861.000000pt" viewBox="0 0 735.000000 861.000000"
 preserveAspectRatio="xMidYMid meet">

<g transform="translate(0.000000,861.000000) scale(0.100000,-0.100000)"
fill="#7e22ce" stroke="none">
<path d="M6295 8453 c-236 -18 -456 -75 -785 -201 -303 -116 -680 -302 -1595
-787 -877 -465 -1393 -682 -1851 -779 -726 -153 -1137 -341 -1441 -659 -244
-255 -390 -608 -432 -1041 -14 -138 -14 -478 -1 -661 30 -404 126 -995 220
-1345 297 -1104 1006 -2022 1940 -2513 337 -176 707 -295 1075 -343 336 -44
768 -21 1042 56 636 177 1281 969 1821 2235 452 1060 796 2411 911 3575 32
321 42 512 42 825 0 997 -172 1456 -601 1601 -61 20 -242 47 -289 42 -9 -1
-34 -3 -56 -5z"/>
</g>
</svg>
