<svg xmlns="http://www.w3.org/2000/svg" x="0px" y="0px" width="100" height="100" viewBox="0 0 50 50">
<path d="M19.25 30.76l9.03 15.23H14c-1.15 0-2.25-.19-3.28-.56L19.25 30.76zM30.35 29L20.28 29 25.2 20.53zM24.64 3.99L4.29 38.4c-.02-.07-.03-.15-.05-.22C4.08 37.48 4 36.74 4 35.99v-22c0-5.51 4.49-10 10-10H24.64zM32.52 3.99L8.91 44.59c-1.55-.92-2.82-2.24-3.69-3.83L27.04 3.99H32.52zM46 13.99V29H32.69l-6.35-10.43L34.9 3.99H36C41.51 3.99 46 8.48 46 13.99zM21.72 31H46v4.99c0 5.51-4.49 10-10 10h-5.4L21.72 31z"></path>
</svg>